<svg xmlns="http://www.w3.org/2000/svg" viewBox="0 0 316 88"><g fill="#87AF3E"><path d="M3 20.738L14.867 85.69l38.116-21.685-6.043-15.347L28.69 58.75 22.602 16zM50.68 18.459l-5.075 25.575 14.661.318 1.975-8.95 14.381.32-1.412 9.269-10.715-3.196-3.945 15.664 10.996 4.477-3.385 16.625 14.38 5.115L96.64 18.459zM101.713 18.804v16.625h19.737L95.51 71.932l12.969 11.51 16.354-21.098 16.071 19.182 12.407-14.068-20.303-19.82 13.817-28.834z"/><path d="M155.949 15.332l-10.15 25.575 10.998 5.434 5.92-9.911 13.251 5.756-16.071 33.567 12.124 7.35 27.068-50.509zM201.252 38.557h47.706l-12.083 44.438-13.81-3.836 4.893-23.66h-26.994zM201.904 17.3h39.657v15.984h-39.657zM251.079 18.584v18.221l26.145-.32-8.426 41.632 14.384 4.476 17.92-64.009zM307.793 12.724A5.206 5.206 0 0 0 313 7.517a5.208 5.208 0 1 0-5.207 5.207M307.793 26.018A5.206 5.206 0 0 0 313 20.811a5.208 5.208 0 1 0-5.207 5.207"/></g></svg>